<svg width="1920" height="144" viewBox="0 0 1920 144" fill="none" xmlns="http://www.w3.org/2000/svg">
<path d="M1149.2 74.5054C764.549 74.5054 318.332 200.637 0.000194752 113.048L0 0H1920V110.869C1920 110.869 1456.52 74.5054 1149.2 74.5054Z" fill="#FDAD00"/>
<path d="M1155.7 69.1416C771.105 69.1416 268.279 186.151 0 102.164L0.000194752 0H1920V102.164C1920 102.164 1485.05 69.1416 1155.7 69.1416Z" fill="black"/>
<path d="M1125.85 65.0933C973.189 70.998 732.9 97.8884 732.9 97.8884C733.272 107.766 973.863 82.8618 1126.29 76.6637C1289.94 70.0091 1545.39 92.9532 1545.39 92.9532L1737.07 103.697L1920.13 113.611L1920.1 103.987C1920.1 103.987 1848.9 104.392 1807.56 99.5925C1760.27 94.1023 1670.99 86.8542 1670.99 86.8542C1670.99 86.8542 1289.78 58.7529 1125.85 65.0933Z" fill="url(#paint0_linear_748_192)"/>
<defs>
<linearGradient id="paint0_linear_748_192" x1="1301.14" y1="62.4844" x2="1302.09" y2="135.646" gradientUnits="userSpaceOnUse">
<stop offset="0.223958" stop-color="#D9D9D9"/>
<stop offset="1" stop-color="#D9D9D9" stop-opacity="0"/>
</linearGradient>
</defs>
</svg>
